<svg xmlns="http://www.w3.org/2000/svg" xmlns:xlink="http://www.w3.org/1999/xlink" width="500" zoomAndPan="magnify" viewBox="0 0 375 374.999991" height="500" preserveAspectRatio="xMidYMid meet" version="1.0"><path fill="#004aad" d="M 54.21875 278.875 L 16.042969 153.460938 L 45.917969 144.355469 L 53.207031 168.308594 L 60.640625 191.949219 L 69.667969 173.707031 C 75.957031 161.453125 80.890625 151.304688 84.46875 143.265625 L 90.121094 130.6875 L 105.789062 126.601562 C 116.363281 123.847656 121.8125 122.496094 122.140625 122.558594 C 122.347656 123.265625 121.214844 127.160156 118.746094 134.238281 C 116.273438 141.320312 113.589844 148.464844 110.699219 155.667969 C 107.59375 163.71875 103.691406 171.925781 98.988281 180.289062 L 92.296875 192.535156 L 95.675781 194.507812 C 102.007812 198.589844 113.320312 206.753906 129.621094 219 C 145.925781 231.238281 156.171875 239.421875 160.363281 243.554688 L 162.679688 245.859375 L 129.855469 255.847656 L 120.5 249.457031 C 113.847656 244.839844 105.996094 239.199219 96.9375 232.539062 C 87.886719 225.871094 82.222656 221.578125 79.941406 219.664062 C 77.605469 217.578125 76.15625 216.628906 75.601562 216.804688 C 75.03125 216.976562 73.878906 218.015625 72.144531 219.929688 L 69.902344 223.164062 L 84.089844 269.769531 Z M 54.21875 278.875 " fill-opacity="0.451" fill-rule="nonzero"/><path fill="#004aad" d="M 43.089844 272.6875 L 4.914062 147.273438 L 34.789062 138.167969 L 42.078125 162.121094 L 49.511719 185.761719 L 58.539062 167.519531 C 64.828125 155.265625 69.761719 145.117188 73.339844 137.078125 L 78.992188 124.5 L 94.660156 120.414062 C 105.234375 117.660156 110.683594 116.308594 111.011719 116.371094 C 111.21875 117.078125 110.089844 120.972656 107.617188 128.050781 C 105.144531 135.132812 102.460938 142.277344 99.570312 149.480469 C 96.464844 157.53125 92.5625 165.738281 87.859375 174.101562 L 81.167969 186.347656 L 84.546875 188.320312 C 90.878906 192.402344 102.195312 200.566406 118.492188 212.8125 C 134.796875 225.050781 145.042969 233.234375 149.234375 237.367188 L 151.554688 239.671875 L 118.726562 249.660156 L 109.371094 243.269531 C 102.71875 238.652344 94.867188 233.011719 85.808594 226.351562 C 76.757812 219.683594 71.09375 215.390625 68.8125 213.476562 C 66.476562 211.390625 65.027344 210.441406 64.472656 210.617188 C 63.90625 210.789062 62.753906 211.828125 61.015625 213.742188 L 58.777344 216.976562 L 72.960938 263.582031 Z M 43.089844 272.6875 " fill-opacity="1" fill-rule="nonzero"/><path fill="#f8d418" d="M 142.472656 141.78125 L 170.8125 141.78125 L 170.8125 236.121094 L 142.472656 236.121094 Z M 142.472656 97.941406 L 170.8125 97.941406 L 170.8125 120.746094 L 142.472656 120.746094 Z M 142.472656 97.941406 " fill-opacity="0.451" fill-rule="nonzero"/><path fill="#f8d418" d="M 133.625 132.621094 L 161.96875 132.621094 L 161.96875 226.960938 L 133.625 226.960938 Z M 133.625 88.78125 L 161.96875 88.78125 L 161.96875 111.585938 L 133.625 111.585938 Z M 133.625 88.78125 " fill-opacity="1" fill-rule="nonzero"/><path fill="#f80505" d="M 179.945312 250.652344 L 216.96875 124.671875 L 248.359375 134.125 C 265.707031 139.519531 276.386719 143.117188 280.394531 144.917969 C 284.402344 146.707031 289.035156 149.917969 294.296875 154.542969 C 299.664062 159.355469 303.5 164.863281 305.816406 171.082031 C 308.140625 177.300781 309.230469 184.855469 309.085938 193.746094 C 308.871094 199.679688 307.585938 206.679688 305.21875 214.75 C 300.753906 229.898438 294.585938 241.859375 286.707031 250.621094 C 278.835938 259.382812 269.632812 264.679688 259.089844 266.511719 C 252.625 267.53125 245.714844 267.464844 238.351562 266.308594 C 231 265.148438 219.324219 262.21875 203.332031 257.515625 Z M 261.691406 165.734375 C 258.292969 163.671875 253.691406 161.785156 247.882812 160.066406 L 238.96875 157.449219 L 215.941406 235.832031 L 225.902344 238.058594 C 235.464844 240.5625 243.265625 240.972656 249.304688 239.289062 C 255.339844 237.609375 260.484375 233.851562 264.738281 228.023438 C 268.988281 222.195312 272.175781 215.664062 274.300781 208.4375 C 274.808594 206.746094 275.238281 205.023438 275.597656 203.277344 C 277.605469 194.324219 277.503906 186.796875 275.296875 180.695312 C 273.09375 174.582031 268.5625 169.59375 261.691406 165.734375 Z M 261.691406 165.734375 " fill-opacity="0.451" fill-rule="nonzero"/><path fill="#f80505" d="M 174.042969 239.371094 L 211.066406 113.386719 L 242.453125 122.839844 C 259.800781 128.238281 270.480469 131.835938 274.488281 133.636719 C 278.496094 135.425781 283.128906 138.632812 288.394531 143.261719 C 293.757812 148.070312 297.597656 153.582031 299.914062 159.800781 C 302.238281 166.019531 303.324219 173.574219 303.179688 182.464844 C 302.964844 188.398438 301.679688 195.398438 299.3125 203.46875 C 294.851562 218.617188 288.679688 230.578125 280.800781 239.339844 C 272.929688 248.101562 263.726562 253.398438 253.183594 255.230469 C 246.722656 256.25 239.808594 256.179688 232.449219 255.023438 C 225.09375 253.867188 213.417969 250.9375 197.429688 246.234375 Z M 255.789062 154.453125 C 252.386719 152.390625 247.789062 150.503906 241.980469 148.785156 L 233.0625 146.167969 L 210.039062 224.550781 L 219.996094 226.777344 C 229.558594 229.28125 237.359375 229.691406 243.398438 228.007812 C 249.4375 226.328125 254.582031 222.570312 258.835938 216.738281 C 263.082031 210.914062 266.269531 204.382812 268.398438 197.15625 C 268.902344 195.464844 269.332031 193.742188 269.691406 191.996094 C 271.699219 183.042969 271.601562 175.515625 269.390625 169.410156 C 267.191406 163.300781 262.65625 158.3125 255.789062 154.453125 Z M 255.789062 154.453125 " fill-opacity="1" fill-rule="nonzero"/><path fill="#0cd60e" d="M 289.941406 273.105469 L 289.941406 255.855469 L 293.429688 250.804688 C 293.558594 250.417969 298.660156 243.371094 308.738281 229.675781 C 332.261719 197.617188 344.15625 181.332031 344.421875 180.816406 C 344.421875 180.554688 335.304688 180.421875 317.085938 180.421875 L 289.941406 180.421875 L 289.941406 158.121094 L 379.125 158.121094 L 379.125 164.71875 C 379.125 167.949219 378.957031 170.148438 378.632812 171.316406 C 378.316406 172.476562 377.253906 174.671875 375.445312 177.910156 C 370.921875 185.921875 359.933594 202.007812 342.480469 226.1875 C 333.429688 238.730469 328.582031 245.453125 327.945312 246.355469 L 325.417969 250.03125 L 380.667969 250.03125 L 380.667969 273.105469 Z M 289.941406 273.105469 " fill-opacity="0.451" fill-rule="nonzero"/><path fill="#0cd60e" d="M 282.199219 265.085938 L 282.199219 247.835938 L 285.6875 242.785156 C 285.8125 242.398438 290.914062 235.351562 300.996094 221.65625 C 324.515625 189.597656 336.414062 173.3125 336.675781 172.796875 C 336.675781 172.535156 327.5625 172.402344 309.34375 172.402344 L 282.199219 172.402344 L 282.199219 150.101562 L 371.378906 150.101562 L 371.378906 156.699219 C 371.378906 159.929688 371.214844 162.128906 370.890625 163.296875 C 370.574219 164.457031 369.507812 166.652344 367.703125 169.890625 C 363.175781 177.902344 352.191406 193.992188 334.734375 218.167969 C 325.683594 230.710938 320.839844 237.433594 320.199219 238.335938 L 317.675781 242.011719 L 372.925781 242.011719 L 372.925781 265.085938 Z M 282.199219 265.085938 " fill-opacity="1" fill-rule="nonzero"/></svg>